<?xml version="1.0" encoding="utf-8"?>
<!-- Generator: Adobe Illustrator 24.3.0, SVG Export Plug-In . SVG Version: 6.00 Build 0)  -->
<svg version="1.1" id="Layer_1" xmlns="http://www.w3.org/2000/svg" xmlns:xlink="http://www.w3.org/1999/xlink" x="0px" y="0px"
	 viewBox="0 0 4476 513" style="enable-background:new 0 0 4476 513;" xml:space="preserve">
<style type="text/css">
	.st0{fill:#767676;}
	.st1{display:none;}
	.st2{display:none;fill-rule:evenodd;clip-rule:evenodd;}
	.st3{font-family:'MyriadPro-Regular';}
	.st4{font-size:300px;}
	.st5{letter-spacing:90;}
	.st6{display:none;fill:#506E91;}
	.st7{display:none;fill:#506E91;stroke:#5072A7;stroke-miterlimit:10;}
	.st8{display:none;fill:#506E91;stroke:#45607C;stroke-miterlimit:10;}
	.st9{fill-rule:evenodd;clip-rule:evenodd;fill:none;}
	.st10{display:none;fill:#474A4C;}
	.st11{font-family:'ChangelingNeo';}
	.st12{font-size:280px;}
	.st13{letter-spacing:70;}
	.st14{fill:#506E91;stroke:#5072A7;stroke-miterlimit:10;}
	.st15{fill:#506E91;stroke:#45607C;stroke-miterlimit:10;}
	.st16{fill:#F4F4F4;}
	.st17{font-size:267.0522px;}
	.st18{letter-spacing:65.9;}
</style>
<path class="st0" d="M2308.7,321.4v-59.5h51v6.9h-41.2V288h35.7v6.9h-35.7v19.6h41.2v6.9H2308.7z M2452.7,321.4l-23.3-23.4h-0.9
	l-23.3,23.4H2394l29.2-29.8l-28.8-29.7h11.6l22.8,22.9h0.9l22.9-22.9h11.3l-28.8,29.4l29.1,30.1H2452.7z M2503.6,261.9h34.4
	c6.3,0,11.1,0.8,14.3,2.3c3.3,1.6,5.4,3.7,6.5,6.3c1.1,2.7,1.6,6.1,1.6,10.3c0,4-0.5,7.4-1.6,10.1c-1.1,2.7-3.3,4.8-6.6,6.4
	c-3.3,1.6-8.1,2.4-14.4,2.4h-24.3v21.6h-9.8V261.9z M2534.5,292.9c4.9,0,8.5-0.4,10.8-1.1c2.3-0.8,3.8-2,4.4-3.6c0.7-1.6,1-4,1-7.3
	s-0.3-5.7-1-7.3c-0.6-1.6-2-2.8-4.3-3.5c-2.2-0.8-5.8-1.2-10.7-1.2h-21.3v24H2534.5z M2602.6,321.4v-59.5h9.8v52.3h36.5v7.2H2602.6z
	 M2718.1,322.1c-10.4,0-17.7-0.8-22.1-2.3c-4.3-1.6-7.1-4.3-8.3-8.1c-1.1-3.9-1.7-10.6-1.7-20c0-9.4,0.6-16,1.7-19.9
	c1.2-3.9,4-6.7,8.3-8.2c4.3-1.6,11.7-2.3,22.1-2.3c10.3,0,17.6,0.8,22,2.3c4.4,1.6,7.2,4.3,8.3,8.2c1.2,3.9,1.8,10.5,1.8,19.9
	c0,9.4-0.6,16.1-1.8,20c-1.1,3.9-3.9,6.6-8.3,8.1C2735.7,321.4,2728.4,322.1,2718.1,322.1z M2718.1,315.2c7.7,0,13-0.4,15.7-1.1
	c2.7-0.7,4.5-2.6,5.3-5.6c0.8-3,1.3-8.6,1.3-16.8c0-8.2-0.4-13.8-1.3-16.8c-0.8-3-2.6-4.9-5.3-5.6c-2.7-0.7-8-1.1-15.7-1.1
	c-7.7,0-13,0.4-15.8,1.1c-2.7,0.7-4.5,2.6-5.3,5.6c-0.8,3-1.3,8.6-1.3,16.8c0,8.2,0.4,13.8,1.3,16.8c0.8,3,2.6,4.9,5.3,5.6
	C2705.1,314.8,2710.4,315.2,2718.1,315.2z M2843.5,321.4l-12.2-23.4h-1.9h-24.6v23.4h-9.8v-59.5h35.9c6.2,0,10.9,0.7,14.1,2.2
	c3.2,1.5,5.3,3.5,6.3,6.1c1,2.5,1.5,5.8,1.5,9.8c0,4.1-0.8,7.7-2.4,10.7c-1.6,3-4.9,5-9.8,6.1l13.3,24.6H2843.5z M2826.9,291.2
	c4.9,0,8.4-0.4,10.7-1.1c2.4-0.8,3.8-2,4.4-3.5c0.7-1.5,1-3.7,1-6.6c0-2.9-0.3-5.2-0.9-6.7c-0.6-1.5-2-2.6-4.2-3.4
	c-2.1-0.7-5.5-1.1-10.2-1.1h-22.9v22.3H2826.9z M2897.4,321.4v-59.5h51v6.9h-41.2V288h35.7v6.9h-35.7v19.6h41.2v6.9H2897.4z
	 M3039.3,321.4l-12.2-23.4h-1.9h-24.6v23.4h-9.8v-59.5h35.9c6.2,0,10.9,0.7,14.1,2.2c3.2,1.5,5.3,3.5,6.3,6.1c1,2.5,1.5,5.8,1.5,9.8
	c0,4.1-0.8,7.7-2.4,10.7c-1.6,3-4.9,5-9.8,6.1l13.3,24.6H3039.3z M3022.7,291.2c4.9,0,8.4-0.4,10.7-1.1c2.3-0.8,3.8-2,4.4-3.5
	c0.7-1.5,1-3.7,1-6.6c0-2.9-0.3-5.2-0.9-6.7c-0.6-1.5-2-2.6-4.2-3.4c-2.1-0.7-5.5-1.1-10.2-1.1h-22.9v22.3H3022.7z M3159.2,334.4
	c-4.8-4.3-8.3-7.9-10.5-10.7c-2.1-2.8-3.7-6.3-4.8-10.5c-1-4.2-1.5-10-1.5-17.5c0-7.4,0.5-13.3,1.5-17.5c1.1-4.3,2.7-7.8,4.9-10.6
	c2.2-2.8,5.7-6.3,10.4-10.5h6.9c-4,4-6.9,7.2-8.8,9.8c-1.8,2.5-3.3,5.9-4.3,10.4c-1.1,4.4-1.6,10.5-1.6,18.4c0,8,0.5,14.2,1.6,18.6
	c1.1,4.4,2.5,7.9,4.2,10.4c1.8,2.5,4.8,5.7,8.9,9.7H3159.2z M3204.5,261.9h36.4c7.4,0,12.7,1.3,15.9,3.8c3.3,2.5,4.9,6.3,4.9,11.2
	c0,4-1.1,7.1-3.2,9.5c-2.1,2.3-5.5,3.8-10.2,4.5v0.3c5.4,0.7,9.1,2.3,11.1,4.8s3.1,5.7,3.1,9.8c0,4.8-1.6,8.7-4.8,11.5
	c-3.1,2.8-8.8,4.2-17.2,4.2h-36.1V261.9z M3237.7,287.9c4.9,0,8.4-0.8,10.7-2.3c2.3-1.6,3.5-3.9,3.5-7.2c0-2.4-0.4-4.3-1.3-5.6
	c-0.8-1.3-2.3-2.3-4.3-2.9c-2-0.6-4.9-1-8.6-1h-23.4v19H3237.7z M3238.2,314.5c3.8,0,6.7-0.3,8.8-1c2.1-0.6,3.6-1.6,4.4-3
	c0.9-1.4,1.4-3.4,1.4-5.9c0-3.6-1.1-6.1-3.3-7.6c-2.2-1.5-6-2.2-11.3-2.2h-23.9v19.7H3238.2z M3306.8,321.4v-59.5h51v6.9h-41.2V288
	h35.7v6.9h-35.7v19.6h41.2v6.9H3306.8z M3417.1,321.4v-52.3h-24.8v-7.2h59.3v7.2h-24.7v52.3H3417.1z M3536.4,321.4l-8.1-15.8H3493
	l-8.1,15.8h-9.9l29.6-59.5h12.3l29.6,59.5H3536.4z M3510.9,270h-0.6l-14.3,28.6h29.2L3510.9,270z M3576.7,334.4c4.1-4,7-7.2,8.8-9.7
	c1.8-2.5,3.3-5.9,4.3-10.4c1.1-4.4,1.6-10.6,1.6-18.6c0-7.9-0.5-14-1.6-18.4c-1.1-4.4-2.5-7.9-4.3-10.4c-1.8-2.5-4.7-5.8-8.8-9.8
	h6.9c4.7,4.2,8.1,7.6,10.4,10.5c2.2,2.8,3.8,6.4,4.8,10.6c1.1,4.2,1.6,10,1.6,17.5c0,7.4-0.5,13.3-1.6,17.5c-1,4.2-2.6,7.7-4.8,10.5
	c-2.1,2.8-5.6,6.4-10.4,10.7H3576.7z"/>
<path class="st1" d="M820,277h82.5c11.6,0,21,9.5,21,21.1c0,11.7-9.4,21.1-21,21.1H803c-1.6,0-3.1,0.6-4.2,1.6l-30,25.9
	c-4.6,4-1.8,11.5,4.2,11.5h124.5c0.1,0,0.1,0,0.1-0.1c0-0.1,0-0.1,0.1-0.1c1.6,0.1,3.2,0.2,4.7,0.2c33,0,59.8-26.9,59.8-60.1
	c0-31.5-24.1-57.4-54.9-59.9c-0.1,0-0.1,0-0.1-0.1c0-0.1,0-0.1-0.1-0.1h-88.8c-11.6,0-21-9.5-21-21.1c0-11.7,9.4-21.1,21-21.1h99.3
	c1.6,0,3.2-0.6,4.4-1.7l27.9-25.9c4.4-4,1.5-11.4-4.4-11.4H820c0,0,0,0,0,0s0,0,0,0c-0.5,0-1.1,0-1.6,0c-33,0-59.8,26.9-59.8,60.1
	c0,33.2,26.8,60.1,59.8,60.1C818.9,277,819.5,277,820,277C820,276.9,820,277,820,277C820,277,820,277,820,277z"/>
<path class="st1" d="M1300.3,156.7c-3.6,0-6.5,2.9-6.5,6.6v188.4c0,3.6,2.9,6.6,6.5,6.6h151c1.8,0,3.5-0.8,4.8-2.1l18.9-20.3
	c3.9-4.2,0.9-11.1-4.8-11.1h-131.8c-3.6,0-6.5-2.9-6.5-6.6v-155c0-3.6-2.9-6.6-6.5-6.6H1300.3z"/>
<path class="st2" d="M1058.4,156.7C1058.4,156.7,1058.4,156.7,1058.4,156.7C1058.4,156.7,1058.4,156.7,1058.4,156.7
	c-19.3,0.9-34.8,16.4-35.7,35.7c0,0,0,0,0,0c0,0,0,0,0,0c0,0,0,0,0,0v126.7c0,0,0,0,0,0s0,0,0,0c0,0.5,0,1.1,0,1.6
	c0,20.1,15.8,36.5,35.7,37.3c0,0,0,0,0,0l0,0v0c0,0,0,0,0,0h137c0,0,0,0,0,0v0l0,0l0,0c19.8-0.9,35.7-17.3,35.7-37.3
	c0-0.5,0-1.1,0-1.6c0,0,0,0,0,0s0,0,0,0V192.5c0,0,0,0,0,0s0,0,0,0c-0.8-19.3-16.3-34.9-35.6-35.7c0,0,0,0,0,0c0,0,0,0,0,0H1058.4z
	 M1084,192.5L1084,192.5L1084,192.5C1084,192.5,1084,192.5,1084,192.5c-12.1,0.5-21.8,10.3-22.3,22.5c0,0,0,0,0,0c0,0,0,0,0,0v79.7
	c0,0,0,0,0,0c0,0,0,0,0,0c0,0.3,0,0.7,0,1c0,12.6,9.9,23,22.3,23.5c0,0,0,0,0,0v0v0l0,0h85.9l0,0v0l0,0c0,0,0,0,0,0
	c12.4-0.5,22.3-10.9,22.3-23.5c0-0.3,0-0.7,0-1v0l0,0v0c0,0,0,0,0,0V215c0,0,0,0,0,0c0,0,0,0,0,0c-0.5-12.2-10.2-21.9-22.3-22.5
	c0,0,0,0,0,0l0,0v0l0,0H1084z"/>
<path class="st2" d="M1694.4,351.7c0,3.6,2.9,6.6,6.5,6.6h25.6c3.6,0,6.5-2.9,6.5-6.6V195.7c0,0,0,0,0,0l0,0v0c0,0,0,0,0,0
	c0-0.5,0-1.1,0-1.6c0-20.1-15.7-36.5-35.3-37.3c0,0,0,0,0,0c0,0,0,0,0,0h-131.5c0,0,0,0,0,0c0,0,0,0,0,0c-0.5,0-1.1,0-1.6,0
	c-20.4,0-36.9,16.7-36.9,37.4c0,0.5,0,1.1,0,1.6c0,0,0,0,0,0c0,0,0,0,0,0v155.9c0,3.6,2.9,6.6,6.5,6.6h25.6c3.6,0,6.5-2.9,6.5-6.6
	v-64.9c0-3.6,2.9-6.6,6.5-6.6H1688c3.6,0,6.5,2.9,6.5,6.6V351.7z M1566.1,244.4V212c0-12.6,10.1-22.8,22.5-22.8h83.4
	c12.4,0,22.5,10.2,22.5,22.8v32.4c0,3.6-2.9,6.6-6.5,6.6h-115.4C1569,251,1566.1,248,1566.1,244.4z"/>
<path class="st2" d="M2235,358.2c-3.6,0-6.5-2.9-6.5-6.6v-64.9c0-3.6-2.9-6.6-6.5-6.6h-116.7c-3.6,0-6.5,2.9-6.5,6.6v64.9
	c0,3.6-2.9,6.6-6.5,6.6h-25.8c-3.6,0-6.5-2.9-6.5-6.6V195.7v0v0c0,0,0,0,0,0s0,0,0,0c0-0.5,0-1.1,0-1.6c0-20.6,16.7-37.4,37.3-37.4
	c0.5,0,1.1,0,1.6,0c0,0,0,0,0,0c0,0,0,0,0,0h133c0,0,0,0,0,0c0,0,0,0,0,0c19.8,0.9,35.7,17.3,35.7,37.3c0,0.5,0,1.1,0,1.6
	c0,0,0,0,0,0c0,0,0,0,0,0c0,0,0,0,0,0v155.9c0,3.6-2.9,6.6-6.5,6.6H2235z M2098.7,212v32.4c0,3.6,2.9,6.6,6.5,6.6h116.7
	c3.6,0,6.5-2.9,6.5-6.6V212c0-12.6-10.2-22.8-22.7-22.8h-84.3C2108.9,189.2,2098.7,199.4,2098.7,212z"/>
<path class="st1" d="M1829.4,156.7c1.9,0,3.7,0.8,4.9,2.3l114.8,136.9c3.9,4.6,11.4,1.8,11.4-4.3V163.3c0-3.6,2.9-6.6,6.5-6.6h25.6
	c3.6,0,6.5,2.9,6.5,6.6v188.4c0,3.6-2.9,6.6-6.5,6.6h-31.8c-0.1,0-0.2-0.1-0.2-0.2c0-0.1,0-0.1-0.1-0.2l-116.8-135.9
	c-3.9-4.6-11.3-1.7-11.3,4.3v125.5c0,3.6-2.9,6.6-6.5,6.6h-25.8c-3.6,0-6.5-2.9-6.5-6.6V163.3c0-3.6,2.9-6.6,6.5-6.6H1829.4z"/>
<text transform="matrix(1 0 0 1 820.149 360.192)" class="st1 st3 st4 st5">FYFY</text>
<path class="st6" d="M2330,136.4c-2.1,4-5.7,7-10,8.3l-397.5,124.2c-7.2,2.3-13.6-5.4-10.1-12.1l54-103c2.1-4,5.7-7,10-8.3
	L2374,21.3c7.2-2.3,13.6,5.4,10.1,12.1L2330,136.4z"/>
<path class="st6" d="M2330.1,136.6c-2.1,4-5.7,7-10,8.3l-397.7,123.7c-7.2,2.3-13.6-5.4-10.1-12.1l54.2-103c2.1-4,5.7-7,10-8.3
	l397.7-123.7c7.2-2.3,13.6,5.4,10.1,12.1L2330.1,136.6z"/>
<path class="st6" d="M2097.6,201.5c1.9,2.2,3.9,3.1,5.5,2.6l147.6-47.7c2.7-0.9,1.7-8.6-1.6-12.2L2199,88.6
	c-1.9-2.2-3.9-3.1-5.5-2.6l-147.6,47.7c-2.7,0.9-1.7,8.6,1.6,12.2L2097.6,201.5z"/>
<path class="st7" d="M1405.9,11.6c-1.9,4.1-5.4,7.4-9.6,9l-395,150.5c-7.2,2.7-14.1-4.5-10.9-11.4l48.8-106.6c1.9-4.1,5.4-7.4,9.6-9
	l395-150.5c7.2-2.7,14.1,4.5,10.9,11.4L1405.9,11.6z"/>
<path class="st8" d="M1342.5,164.3c-1.9,4-5.4,7.2-9.6,8.7L941.3,319.1c-7.1,2.7-13.8-4.3-10.6-11.1l49.5-103.6
	c1.9-4,5.4-7.2,9.6-8.7l391.6-146.1c7.1-2.7,13.8,4.3,10.6,11.1L1342.5,164.3z"/>
<rect x="1442" y="73.1" class="st9" width="1920" height="311.8"/>
<text transform="matrix(1 0 0 1 2858.2188 284.7299)" class="st10 st11 st12 st13">F</text>
<path class="st8" d="M1051.7,398.2L943,345.2c-3.7-1.8-3.2-7.4,0.8-8.8l81.7-28.8l80.7-29.5c3.9-1.4,7.3,2.6,5.4,6.5l-53.8,111.4
	C1056.7,398.3,1054,399.3,1051.7,398.2z"/>
<path class="st14" d="M1028.8,131c-1.8,3.9-5,7-8.9,8.6L654.2,283.2c-6.7,2.6-13-4.3-10.1-10.9l45.2-101.7c1.8-3.9,5-7,8.9-8.6
	l365.7-143.6c6.7-2.6,13,4.3,10.1,10.9L1028.8,131z"/>
<path class="st15" d="M970.2,276.7c-1.8,3.8-5,6.8-8.9,8.3L598.7,424.3c-6.6,2.5-12.8-4.1-9.8-10.6l45.8-98.8c1.8-3.8,5-6.8,8.9-8.3
	l362.5-139.3c6.6-2.5,12.8,4.1,9.8,10.6L970.2,276.7z"/>
<rect x="1074.7" y="162.9" class="st9" width="1777.5" height="297.4"/>
<text transform="matrix(0.9707 0 0 1 1074.6964 364.7766)" class="st16 st11 st17 st18">FYFY</text>
<path class="st15" d="M700.9,499.8l-100.6-50.6c-3.4-1.7-2.9-7.1,0.8-8.4l75.7-27.5l74.7-28.2c3.6-1.4,6.7,2.5,5,6.2l-49.8,106.3
	C705.6,499.9,703,500.9,700.9,499.8z"/>
</svg>
